<svg width="100" height="100" viewBox="0 0 100 100" fill="none" xmlns="http://www.w3.org/2000/svg">
<path d="M50 6.25L59.7917 13.75L71.875 12.0833L76.4583 23.5417L87.9167 28.125L86.25 40.2083L93.75 50L86.25 59.7917L87.9167 71.875L76.4583 76.4583L71.875 87.9167L59.7917 86.25L50 93.75L40.2083 86.25L28.125 87.9167L23.5417 76.4583L12.0833 71.875L13.75 59.7917L6.25 50L13.75 40.2083L12.0833 28.125L23.5417 23.5417L28.125 12.0833L40.2083 13.75L50 6.25Z" fill="#FFB74D"/>
<path d="M72.0833 30.4166L43.75 58.75L32.0833 47.0833L26.25 52.9166L43.75 70.4166L77.9167 36.25L72.0833 30.4166Z" fill="white"/>
</svg>
