<svg width="100" height="100" viewBox="0 0 100 100" fill="none" xmlns="http://www.w3.org/2000/svg">
<path d="M20.8333 62.5C25.4357 62.5 29.1667 58.7691 29.1667 54.1667C29.1667 49.5643 25.4357 45.8334 20.8333 45.8334C16.231 45.8334 12.5 49.5643 12.5 54.1667C12.5 58.7691 16.231 62.5 20.8333 62.5Z" fill="#FFA726"/>
<path d="M79.1666 62.5C83.769 62.5 87.4999 58.7691 87.4999 54.1667C87.4999 49.5643 83.769 45.8334 79.1666 45.8334C74.5642 45.8334 70.8333 49.5643 70.8333 54.1667C70.8333 58.7691 74.5642 62.5 79.1666 62.5Z" fill="#FFA726"/>
<path d="M81.25 39.5833C81.25 13.1249 18.75 22.2916 18.75 39.5833V60.4166C18.75 77.7083 32.7083 91.6666 50 91.6666C67.2917 91.6666 81.25 77.7083 81.25 60.4166V39.5833Z" fill="#FFB74D"/>
<path d="M49.9999 6.25C30.4166 6.25 14.5833 22.0833 14.5833 41.6667V48.75L18.7499 52.0833V45.8333L62.4999 25.4167L81.2499 45.8333V52.0833L85.4166 48.75V41.6667C85.4166 25 73.5416 6.25 49.9999 6.25Z" fill="#784719"/>
<path d="M64.5834 58.3333C66.8846 58.3333 68.7501 56.4679 68.7501 54.1667C68.7501 51.8655 66.8846 50 64.5834 50C62.2822 50 60.4167 51.8655 60.4167 54.1667C60.4167 56.4679 62.2822 58.3333 64.5834 58.3333Z" fill="#784719"/>
<path d="M35.4167 58.3333C37.7179 58.3333 39.5833 56.4679 39.5833 54.1667C39.5833 51.8655 37.7179 50 35.4167 50C33.1155 50 31.25 51.8655 31.25 54.1667C31.25 56.4679 33.1155 58.3333 35.4167 58.3333Z" fill="#784719"/>
<path d="M89.5833 50C88.3333 50 87.5 50.8333 87.5 52.0833V37.5C87.5 19.1666 72.5 4.16663 54.1667 4.16663H39.5833C38.3333 4.16663 37.5 4.99996 37.5 6.24996C37.5 7.49996 38.3333 8.33329 39.5833 8.33329H54.1667C70.2083 8.33329 83.3333 21.4583 83.3333 37.5V58.3333C83.3333 59.5833 84.1667 60.4166 85.4167 60.4166C86.6667 60.4166 87.5 59.5833 87.5 58.3333V62.5C87.5 70.625 81.0417 77.0833 72.9167 77.0833H50C48.75 77.0833 47.9167 77.9166 47.9167 79.1666C47.9167 80.4166 48.75 81.25 50 81.25H72.9167C83.3333 81.25 91.6667 72.9166 91.6667 62.5V52.0833C91.6667 50.8333 90.8333 50 89.5833 50Z" fill="#757575"/>
<path d="M89.5833 45.8334H87.4999C85.2083 45.8334 83.3333 47.7084 83.3333 50V58.3334C83.3333 60.625 85.2083 62.5 87.4999 62.5H89.5833C91.8749 62.5 93.7499 60.625 93.7499 58.3334V50C93.7499 47.7084 91.8749 45.8334 89.5833 45.8334Z" fill="#37474F"/>
<path d="M49.9999 83.3333C52.3011 83.3333 54.1666 81.4679 54.1666 79.1667C54.1666 76.8655 52.3011 75 49.9999 75C47.6987 75 45.8333 76.8655 45.8333 79.1667C45.8333 81.4679 47.6987 83.3333 49.9999 83.3333Z" fill="#37474F"/>
</svg>
