<svg width="16" height="16" viewBox="0 0 16 16" fill="none" xmlns="http://www.w3.org/2000/svg">
<path d="M8.00002 6.58893L2.26379 0.852703L2.26397 0.852529L2.25579 0.845047C2.06607 0.671438 1.81669 0.577721 1.55959 0.583418C1.30249 0.589114 1.0575 0.693786 0.875662 0.875627C0.693821 1.05747 0.58915 1.30245 0.583453 1.55955C0.577756 1.81665 0.671474 2.06604 0.845082 2.25575L0.844903 2.25592L0.852694 2.26371L6.58601 7.99994L0.85321 13.7327C0.757956 13.8241 0.681753 13.9335 0.629021 14.0545C0.575859 14.1765 0.547623 14.3079 0.545975 14.441C0.544327 14.574 0.569299 14.7061 0.619423 14.8294C0.669547 14.9527 0.743812 15.0647 0.837852 15.1589C0.931892 15.253 1.04381 15.3275 1.16703 15.3778C1.29024 15.4281 1.42227 15.4532 1.55535 15.4518C1.68843 15.4503 1.81987 15.4223 1.94196 15.3693L1.84242 15.1399L1.94196 15.3693C2.0631 15.3167 2.1726 15.2406 2.26413 15.1454L7.99998 9.41249L13.7363 15.1488L13.7361 15.1489L13.7443 15.1564C13.934 15.33 14.1834 15.4237 14.4405 15.418C14.6976 15.4123 14.9425 15.3077 15.1244 15.1258C15.3062 14.944 15.4109 14.699 15.4166 14.4419C15.4223 14.1848 15.3286 13.9354 15.155 13.7457L15.1551 13.7455L15.1473 13.7377L9.41106 8.00146L15.1453 2.26573C15.2406 2.17437 15.3168 2.06501 15.3695 1.94398C15.4227 1.82198 15.4509 1.69057 15.4526 1.55749C15.4542 1.42442 15.4292 1.29235 15.3791 1.16907C15.329 1.04578 15.2547 0.93376 15.1607 0.839585C15.0667 0.745412 14.9547 0.670988 14.8315 0.620689L14.737 0.852147L14.8315 0.620689C14.7083 0.57039 14.5763 0.545231 14.4432 0.546691C14.3101 0.54815 14.1787 0.576199 14.0566 0.629188C13.9345 0.682177 13.8242 0.759038 13.7323 0.855251L13.7019 0.887068L8.00002 6.58893Z" fill="#492293" stroke="#492293" stroke-width="0.5"/>
</svg>
