<svg width="190" height="60" viewBox="0 0 280 67" fill="none" xmlns="http://www.w3.org/2000/svg">
<g clip-path="url(#clip0_33_348)">
<path d="M75.0469 53.171L73.9934 53.6558C73.8945 53.2469 73.6432 52.8914 73.291 52.6619C72.9344 52.4173 72.5122 52.2863 72.0799 52.2862C71.7778 52.2787 71.4785 52.3453 71.208 52.4801C70.9491 52.6266 70.7386 52.8457 70.6025 53.1104C70.4936 53.3418 70.4358 53.5939 70.433 53.8497C70.4269 54.1324 70.5041 54.4107 70.6548 54.6499C70.8055 54.8891 71.0231 55.0786 71.2807 55.195L73.8117 56.1283C74.2551 56.3679 74.6207 56.7296 74.8653 57.1706C75.1052 57.6002 75.2304 58.0844 75.2286 58.5765C75.2267 58.9936 75.1402 59.4059 74.9743 59.7885C74.7934 60.184 74.529 60.5355 74.1992 60.8187C73.6156 61.2211 72.9289 61.4475 72.2206 61.4712C71.5122 61.4948 70.812 61.3146 70.2029 60.9521C69.9107 60.7491 69.6667 60.4843 69.4884 60.1764C69.2944 59.82 69.144 59.4415 69.0403 59.0492L70.2029 58.5159C70.1966 58.7772 70.2463 59.0368 70.3487 59.2772C70.451 59.5176 70.6037 59.7333 70.7963 59.9097C71.1765 60.2754 71.6858 60.4758 72.2132 60.4673C72.4271 60.4716 72.6401 60.4388 72.8429 60.3703C73.0682 60.3028 73.2781 60.1916 73.4605 60.0431C73.6685 59.8832 73.8347 59.6753 73.9449 59.4371C74.0555 59.1806 74.1132 58.9044 74.1145 58.625C74.1428 58.2824 74.0436 57.9414 73.8359 57.6675C73.7007 57.5111 73.5461 57.3726 73.3757 57.2554C73.1347 57.1295 72.8836 57.0241 72.6249 56.9403L70.9174 56.3343C70.437 56.1209 70.0199 55.7869 69.7063 55.3647C69.3949 54.9582 69.2286 54.4589 69.234 53.9466C69.2497 53.7016 69.2862 53.4583 69.343 53.2194C69.4436 52.7992 69.6621 52.4166 69.9728 52.1165C70.2814 51.7449 70.7095 51.4921 71.1838 51.4014C71.554 51.3207 71.9312 51.2761 72.31 51.2681H72.6249L73.2546 51.3893C73.6535 51.4895 74.0202 51.6897 74.3203 51.9711C74.6754 52.2906 74.9282 52.708 75.0469 53.171Z" fill="#492293"/>
<path d="M88.1503 59.8613C87.792 60.3595 87.329 60.7732 86.7939 61.0733C86.2717 61.3506 85.6897 61.4962 85.0985 61.4975C84.5458 61.4742 84.0063 61.3205 83.5242 61.049C83.0558 60.7537 82.6785 60.3342 82.4343 59.837C82.1807 59.3293 82.052 58.7683 82.0589 58.2008C82.0518 57.4374 82.2942 56.6926 82.7491 56.0798C82.9008 55.8188 83.1033 55.591 83.3446 55.4099C83.5859 55.2288 83.8611 55.098 84.1539 55.0253C84.4823 54.9684 84.814 54.932 85.147 54.9162C85.7039 54.9092 86.2536 55.0426 86.7455 55.3041C87.2384 55.5656 87.621 55.9958 87.8233 56.5161C88.066 57.1036 88.1856 57.7348 88.1745 58.3705H83.1124C83.1031 58.944 83.3058 59.5008 83.6816 59.934C83.8581 60.1435 84.079 60.3109 84.3283 60.4241C84.5776 60.5373 84.849 60.5935 85.1227 60.5885C85.2798 60.6029 85.4379 60.6029 85.595 60.5885C85.9307 60.543 86.2483 60.4092 86.5154 60.2006C86.805 59.97 87.0617 59.7009 87.2783 59.4007L88.1503 59.8613ZM87.0483 57.5342C86.9606 57.0584 86.7075 56.6291 86.3338 56.3222C85.9707 56.0091 85.505 55.8408 85.0258 55.8495C84.8006 55.8436 84.5766 55.8848 84.3681 55.9703C84.1596 56.0559 83.9711 56.184 83.8148 56.3464C83.4733 56.6721 83.2407 57.0954 83.1488 57.5584L87.0483 57.5342Z" fill="#492293"/>
<path d="M100.757 61.3036H99.7519V60.0915C99.5362 60.5342 99.1837 60.8954 98.7467 61.1218C98.0905 61.4872 97.3206 61.5911 96.5911 61.4126C96.2782 61.3285 95.9829 61.1889 95.7192 61.0006C95.309 60.7182 94.9793 60.3339 94.7625 59.8855C94.4914 59.3654 94.3502 58.7874 94.3507 58.2008C94.3464 57.6986 94.454 57.2018 94.6656 56.7464C94.8628 56.374 95.1115 56.0312 95.4043 55.7283C95.7891 55.3261 96.2956 55.062 96.8454 54.9769H97.2693C97.7485 54.9467 98.2276 55.0385 98.6619 55.2435C99.0811 55.4846 99.4378 55.8209 99.7034 56.2252V55.0132H100.757V61.3036ZM99.546 59.328C99.6815 58.9887 99.7513 58.6268 99.7519 58.2614C99.7563 57.7897 99.6351 57.3253 99.4007 56.9161C99.1631 56.5196 98.8012 56.2128 98.3713 56.0434C98.177 55.996 97.9778 55.9716 97.7779 55.9707H97.3904C97.1167 56.0073 96.8537 56.1005 96.6181 56.2445C96.3824 56.3885 96.1794 56.5801 96.0219 56.807C95.6791 57.2509 95.4957 57.7974 95.5012 58.3584C95.4962 58.6878 95.5623 59.0144 95.6949 59.3159C95.854 59.6464 96.0909 59.9334 96.3852 60.1521C96.7287 60.4263 97.157 60.572 97.5962 60.5642C97.9977 60.568 98.3921 60.4588 98.7346 60.2491C99.0725 60.0276 99.3378 59.7115 99.4975 59.3401L99.546 59.328Z" fill="#492293"/>
<path d="M115.205 61.3035H114.078V56.807C114.069 56.7131 114.04 56.6222 113.994 56.5403C113.994 56.4434 113.897 56.3706 113.872 56.31C113.745 56.1851 113.598 56.0826 113.437 56.007C113.282 55.9448 113.118 55.9119 112.952 55.9101C112.594 55.9164 112.252 56.0595 111.995 56.31C111.707 56.5739 111.508 56.9214 111.426 57.3039V61.3035H110.312V57.1342C110.28 56.7948 110.13 56.4773 109.888 56.2373C109.659 56.0223 109.355 55.9049 109.041 55.9101C108.867 55.9106 108.696 55.9393 108.532 55.9949C108.299 56.0921 108.092 56.2414 107.926 56.4312C107.754 56.6296 107.622 56.8603 107.539 57.11V61.3035H106.534V55.1101H107.563V56.1767C107.737 55.835 107.985 55.5368 108.29 55.3041C108.581 55.0797 108.939 54.9602 109.307 54.9647H109.513C109.905 54.9595 110.287 55.0925 110.591 55.3404C110.909 55.5901 111.149 55.9269 111.281 56.31C111.442 55.9057 111.726 55.5622 112.092 55.3283C112.452 55.0926 112.873 54.9663 113.303 54.9647C113.615 54.9578 113.923 55.027 114.202 55.1664C114.48 55.3058 114.721 55.5112 114.902 55.7646C115.067 55.9565 115.172 56.1924 115.205 56.4434V61.3035Z" fill="#492293"/>
<path d="M124.057 61.3035H122.943V50.9166H124.057V61.3035Z" fill="#492293"/>
<path d="M139.304 59.8612C138.945 60.3595 138.482 60.7732 137.947 61.0733C137.425 61.3506 136.843 61.4962 136.252 61.4975C135.686 61.4945 135.128 61.353 134.629 61.0854C134.161 60.7901 133.784 60.3705 133.539 59.8734C133.286 59.3657 133.157 58.8047 133.164 58.2372C133.157 57.4737 133.399 56.729 133.854 56.1161C134.006 55.8552 134.208 55.6274 134.45 55.4463C134.691 55.2651 134.966 55.1343 135.259 55.0617C135.587 55.0054 135.919 54.9689 136.252 54.9526C136.809 54.9456 137.359 55.0789 137.85 55.3404C138.343 55.602 138.726 56.0321 138.928 56.5525C139.171 57.14 139.291 57.7712 139.279 58.4068H134.266C134.257 58.9804 134.459 59.5372 134.835 59.9703C135.012 60.1798 135.232 60.3473 135.482 60.4605C135.731 60.5737 136.002 60.6298 136.276 60.6248C136.433 60.6393 136.591 60.6393 136.748 60.6248C137.084 60.5793 137.402 60.4455 137.669 60.237C137.958 60.0064 138.215 59.7373 138.432 59.437L139.304 59.8612ZM138.202 57.5342C138.113 57.0615 137.865 56.6336 137.499 56.3222C137.13 56.0112 136.662 55.8434 136.179 55.8495C135.954 55.8436 135.73 55.8848 135.521 55.9703C135.313 56.0559 135.125 56.184 134.968 56.3464C134.627 56.6721 134.394 57.0954 134.302 57.5584L138.202 57.5342Z" fill="#492293"/>
<path d="M151.596 56.1282L150.7 56.6494C150.656 56.5144 150.585 56.3898 150.492 56.2834C150.398 56.1771 150.283 56.0912 150.155 56.0313C149.876 55.8647 149.558 55.7767 149.234 55.7768C149.019 55.7733 148.807 55.8232 148.617 55.9222C148.536 55.9584 148.464 56.0103 148.403 56.0748C148.343 56.1393 148.296 56.2151 148.265 56.2979C148.213 56.4166 148.185 56.5441 148.181 56.6736C148.192 56.8095 148.234 56.9411 148.303 57.0586C148.372 57.1761 148.467 57.2765 148.58 57.3524L150.651 58.0917C150.942 58.2093 151.191 58.4121 151.366 58.6735C151.519 58.9297 151.598 59.2233 151.596 59.5219C151.597 59.9154 151.479 60.3001 151.257 60.6248C151.038 60.9618 150.714 61.2173 150.336 61.352L149.852 61.449H149.355C148.874 61.4567 148.397 61.353 147.963 61.146C147.526 60.9381 147.148 60.6259 146.861 60.237L147.793 59.6067C147.937 59.8998 148.159 60.1476 148.435 60.3228C148.71 60.4981 149.029 60.5942 149.355 60.6006C149.621 60.6098 149.883 60.5379 150.106 60.3945C150.252 60.3007 150.376 60.1767 150.469 60.0309C150.516 59.9282 150.541 59.8167 150.542 59.7037C150.543 59.5142 150.479 59.3302 150.36 59.1825C150.221 59.0216 150.041 58.9003 149.84 58.831L148.508 58.4189C148.111 58.3142 147.759 58.0848 147.502 57.7645C147.252 57.4703 147.115 57.0964 147.115 56.71C147.093 56.4669 147.134 56.2223 147.234 55.9996C147.334 55.7768 147.489 55.5833 147.684 55.4374C147.986 55.2174 148.327 55.057 148.689 54.9647C149.026 54.9128 149.366 54.8885 149.706 54.892C150.089 54.9106 150.46 55.0274 150.784 55.2314C151.111 55.4739 151.387 55.7787 151.596 56.1282Z" fill="#492293"/>
<path d="M164.384 56.1282L163.488 56.6494C163.444 56.5144 163.374 56.3898 163.28 56.2834C163.186 56.1771 163.071 56.0912 162.943 56.0313C162.665 55.8647 162.347 55.7767 162.023 55.7768C161.807 55.7694 161.594 55.8196 161.405 55.9222C161.324 55.9584 161.252 56.0103 161.192 56.0748C161.131 56.1393 161.084 56.2151 161.054 56.2979C161.002 56.4166 160.973 56.5441 160.969 56.6736C160.98 56.8095 161.022 56.9411 161.091 57.0586C161.161 57.1761 161.255 57.2765 161.369 57.3524L163.439 58.0917C163.731 58.2093 163.98 58.4121 164.154 58.6735C164.307 58.9297 164.387 59.2233 164.384 59.5219C164.385 59.9154 164.267 60.3001 164.045 60.6248C163.826 60.9618 163.503 61.2173 163.125 61.352L162.64 61.449H162.132C161.654 61.4553 161.182 61.3516 160.751 61.146C160.315 60.9381 159.936 60.6259 159.649 60.237L160.581 59.6067C160.716 59.9057 160.941 60.1555 161.223 60.3218C161.492 60.5027 161.808 60.5997 162.132 60.6006C162.401 60.6115 162.667 60.5396 162.894 60.3945C163.04 60.3007 163.164 60.1767 163.258 60.0309C163.305 59.9282 163.33 59.8167 163.33 59.7037C163.332 59.5142 163.267 59.3302 163.149 59.1825C163.013 59.0173 162.832 58.8952 162.628 58.831L161.296 58.4189C160.899 58.3142 160.547 58.0848 160.291 57.7645C160.04 57.4703 159.903 57.0964 159.903 56.71C159.882 56.4669 159.923 56.2223 160.022 55.9996C160.122 55.7768 160.277 55.5833 160.472 55.4374C160.774 55.2174 161.116 55.057 161.478 54.9647C161.814 54.9128 162.154 54.8885 162.495 54.892C162.877 54.9106 163.248 55.0274 163.573 55.2314C163.899 55.4739 164.175 55.7787 164.384 56.1282Z" fill="#492293"/>
<path d="M190.191 53.171L189.137 53.6558C189.038 53.2469 188.787 52.8914 188.435 52.6619C188.078 52.4173 187.656 52.2864 187.224 52.2862C186.922 52.2787 186.622 52.3453 186.352 52.4801C186.093 52.6266 185.883 52.8457 185.746 53.1104C185.637 53.3418 185.58 53.5939 185.577 53.8497C185.564 54.1446 185.642 54.4364 185.8 54.6857C185.958 54.935 186.189 55.1297 186.461 55.2435L188.992 56.1768C189.435 56.4164 189.801 56.7781 190.045 57.2191C190.285 57.6486 190.411 58.1329 190.409 58.625C190.407 59.0421 190.32 59.4544 190.154 59.837C189.974 60.2325 189.709 60.584 189.379 60.8672C188.796 61.2696 188.109 61.496 187.401 61.5196C186.692 61.5433 185.992 61.3631 185.383 61.0006C185.091 60.7976 184.847 60.5328 184.669 60.2249C184.475 59.8685 184.324 59.49 184.22 59.0977L185.298 58.5523C185.292 58.8136 185.342 59.0731 185.444 59.3135C185.546 59.554 185.699 59.7697 185.892 59.9461C186.272 60.3118 186.781 60.5122 187.309 60.5036C187.522 60.5079 187.736 60.4751 187.938 60.4067C188.164 60.3392 188.373 60.228 188.556 60.0794C188.764 59.9196 188.93 59.7116 189.04 59.4734C189.151 59.2169 189.209 58.9407 189.21 58.6614C189.234 58.3002 189.117 57.9437 188.883 57.6675C188.748 57.5111 188.593 57.3726 188.423 57.2554C188.209 57.1295 187.987 57.0201 187.757 56.9282L186.049 56.3222C185.569 56.1087 185.152 55.7748 184.838 55.3526C184.527 54.946 184.36 54.4468 184.366 53.9345C184.381 53.6895 184.418 53.4462 184.475 53.2073C184.575 52.7871 184.794 52.4044 185.105 52.1044C185.413 51.7328 185.841 51.48 186.316 51.3893C186.686 51.3086 187.063 51.264 187.442 51.256H187.672L188.302 51.3772C188.7 51.4774 189.067 51.6776 189.367 51.959C189.76 52.2682 190.048 52.6916 190.191 53.171Z" fill="#492293"/>
<path d="M203.246 59.8612C202.887 60.3595 202.424 60.7732 201.889 61.0733C201.367 61.3506 200.785 61.4962 200.194 61.4975C199.628 61.493 199.071 61.3517 198.571 61.0854C198.103 60.7901 197.725 60.3705 197.481 59.8734C197.228 59.3657 197.099 58.8047 197.106 58.2372C197.099 57.4737 197.341 56.729 197.796 56.1161C197.948 55.8552 198.15 55.6274 198.392 55.4463C198.633 55.2651 198.908 55.1343 199.201 55.0617C199.529 55.0048 199.861 54.9683 200.194 54.9526C200.751 54.9456 201.301 55.0789 201.792 55.3404C202.285 55.602 202.668 56.0321 202.87 56.5525C203.113 57.14 203.232 57.7712 203.221 58.4068H198.208C198.198 58.9804 198.401 59.5372 198.777 59.9703C198.953 60.1798 199.174 60.3473 199.424 60.4605C199.673 60.5737 199.944 60.6298 200.218 60.6248C200.375 60.6393 200.533 60.6393 200.69 60.6248C201.026 60.5793 201.344 60.4455 201.611 60.237C201.9 60.0064 202.157 59.7373 202.374 59.437L203.246 59.8612ZM202.204 57.5342C202.116 57.0584 201.863 56.629 201.49 56.3222C201.127 56.0091 200.661 55.8408 200.182 55.8495C199.956 55.8436 199.732 55.8848 199.524 55.9703C199.315 56.0559 199.127 56.184 198.971 56.3464C198.629 56.6721 198.397 57.0954 198.305 57.5584L202.204 57.5342Z" fill="#492293"/>
<path d="M215.223 55.3768L214.581 56.2616C214.39 56.0708 214.135 55.9584 213.866 55.9465C213.679 55.9544 213.497 56.0055 213.333 56.096C213.169 56.1864 213.028 56.3136 212.922 56.4676C212.64 56.7877 212.448 57.1766 212.365 57.5948V61.3035H211.275V55.1708H212.28V56.6737C212.39 56.2565 212.602 55.8734 212.897 55.5586C213.16 55.2474 213.525 55.0409 213.927 54.9768C214.389 54.9769 214.841 55.1162 215.223 55.3768Z" fill="#492293"/>
<path d="M228.919 55.1102L226.001 61.5217H225.722L222.719 55.1102H224.002L225.904 59.6673L227.635 55.1102H228.919Z" fill="#492293"/>
<path d="M238.765 52.9407H238.559C238.46 52.944 238.362 52.9251 238.272 52.8852C238.182 52.8453 238.102 52.7856 238.038 52.7104C237.969 52.6356 237.915 52.5478 237.88 52.4521C237.845 52.3565 237.828 52.2548 237.832 52.1529C237.827 52.0301 237.856 51.9082 237.917 51.8014C237.989 51.6868 238.095 51.5977 238.22 51.5468L238.438 51.4741C238.514 51.4561 238.592 51.4561 238.668 51.4741C238.762 51.482 238.853 51.5085 238.936 51.5522C239.019 51.596 239.093 51.6559 239.152 51.7286C239.26 51.863 239.319 52.0293 239.322 52.2013C239.334 52.3712 239.285 52.5398 239.182 52.6758C239.08 52.8117 238.931 52.9059 238.765 52.9407ZM239.116 61.3157H238.014V55.1465H239.116V61.3157Z" fill="#492293"/>
<path d="M253.866 60.9278C253.783 61.0366 253.679 61.1279 253.561 61.1966C253.442 61.2652 253.312 61.3098 253.176 61.3278C252.85 61.4033 252.517 61.4399 252.183 61.4369H251.771C251.155 61.4459 250.548 61.2867 250.015 60.9763C249.477 60.6755 249.052 60.2074 248.804 59.6431C248.606 59.1666 248.504 58.6561 248.501 58.1402C248.494 57.6806 248.589 57.2251 248.78 56.807C248.957 56.3889 249.226 56.0161 249.567 55.7162C249.916 55.4144 250.331 55.1985 250.778 55.0859C251.228 54.9654 251.693 54.9083 252.159 54.9162C252.726 54.9114 253.285 55.0534 253.781 55.3283V56.4555C253.605 56.4322 253.435 56.3702 253.285 56.2737C253.1 56.1727 252.905 56.0914 252.704 56.0313C252.49 56.006 252.275 56.006 252.062 56.0313C251.745 56.0344 251.43 56.0876 251.129 56.1889C250.841 56.2884 250.579 56.4545 250.366 56.6737C249.944 57.1188 249.706 57.708 249.7 58.322C249.699 58.7998 249.847 59.2659 250.124 59.6552C250.195 59.7526 250.276 59.842 250.366 59.9219L250.645 60.0915C251.048 60.3311 251.508 60.4567 251.977 60.4551C252.316 60.4525 252.652 60.391 252.97 60.2733C253.169 60.1034 253.384 59.9533 253.612 59.8249C253.687 59.8054 253.767 59.8054 253.842 59.8249L253.866 60.9278Z" fill="#492293"/>
<path d="M267.188 59.8612C266.829 60.3595 266.366 60.7732 265.831 61.0733C265.309 61.3506 264.727 61.4962 264.136 61.4975C263.57 61.493 263.013 61.3517 262.513 61.0854C262.045 60.7901 261.667 60.3705 261.423 59.8734C261.169 59.3657 261.041 58.8047 261.048 58.2372C261.041 57.4737 261.283 56.729 261.738 56.1161C261.89 55.8552 262.092 55.6274 262.333 55.4463C262.575 55.2651 262.85 55.1343 263.143 55.0617C263.471 55.0048 263.803 54.9683 264.136 54.9526C264.693 54.9456 265.242 55.0789 265.734 55.3404C266.227 55.602 266.61 56.0321 266.812 56.5525C267.055 57.14 267.174 57.7712 267.163 58.4068H262.15C262.14 58.9804 262.343 59.5372 262.719 59.9703C262.895 60.1798 263.116 60.3473 263.366 60.4605C263.615 60.5737 263.886 60.6298 264.16 60.6248C264.317 60.6393 264.475 60.6393 264.632 60.6248C264.968 60.5793 265.286 60.4455 265.553 60.237C265.842 60.0064 266.099 59.7373 266.316 59.437L267.188 59.8612ZM266.085 57.5342C265.998 57.0584 265.745 56.629 265.371 56.3222C265.008 56.0091 264.542 55.8408 264.063 55.8495C263.838 55.8436 263.614 55.8848 263.405 55.9703C263.197 56.0559 263.008 56.184 262.852 56.3464C262.511 56.6721 262.278 57.0954 262.186 57.5584L266.085 57.5342Z" fill="#492293"/>
<path d="M279.479 56.1282L278.583 56.6494C278.54 56.5144 278.469 56.3898 278.375 56.2834C278.281 56.1771 278.167 56.0912 278.038 56.0313C277.76 55.8647 277.442 55.7767 277.118 55.7768C276.903 55.7694 276.689 55.8196 276.5 55.9222C276.42 55.9584 276.347 56.0103 276.287 56.0748C276.227 56.1393 276.18 56.2151 276.149 56.2979C276.097 56.4166 276.068 56.5441 276.064 56.6736C276.076 56.8095 276.118 56.9411 276.187 57.0586C276.256 57.1761 276.351 57.2765 276.464 57.3524L278.535 58.0917C278.826 58.2093 279.075 58.4121 279.249 58.6735C279.402 58.9297 279.482 59.2233 279.479 59.5219C279.481 59.9154 279.362 60.3001 279.14 60.6248C278.921 60.9618 278.598 61.2173 278.22 61.352L277.735 61.449H277.227C276.749 61.4553 276.277 61.3516 275.846 61.146C275.41 60.9381 275.031 60.6259 274.744 60.237L275.677 59.6067C275.812 59.9057 276.036 60.1555 276.318 60.3218C276.587 60.5027 276.903 60.5997 277.227 60.6006C277.496 60.6115 277.762 60.5396 277.99 60.3945C278.135 60.3007 278.259 60.1767 278.353 60.0309C278.4 59.9282 278.425 59.8167 278.426 59.7037C278.427 59.5142 278.363 59.3302 278.244 59.1825C278.108 59.0173 277.927 58.8952 277.723 58.831L276.391 58.4189C275.995 58.3142 275.642 58.0848 275.386 57.7645C275.136 57.4703 274.998 57.0964 274.998 56.71C274.977 56.4669 275.018 56.2223 275.118 55.9996C275.217 55.7768 275.372 55.5833 275.568 55.4374C275.87 55.2174 276.211 55.057 276.573 54.9647C276.909 54.9128 277.25 54.8885 277.59 54.892C277.972 54.9106 278.344 55.0274 278.668 55.2314C278.995 55.4739 279.27 55.7787 279.479 56.1282Z" fill="#492293"/>
<path d="M68.7981 43.79V11.0657H79.7942C85.5102 11.0899 88.3682 14.0714 88.3682 20.0103V34.8817C88.3682 40.8205 85.4496 43.79 79.6125 43.79H68.7981ZM84.7351 20.0103C84.7351 16.5561 83.1124 14.835 79.891 14.835H72.4312V40.0691H79.6973C83.0558 40.0691 84.7351 38.34 84.7351 34.8817V20.0103Z" fill="black"/>
<path d="M99.4612 43.79C94.8028 43.79 92.4736 41.2892 92.4736 36.2876V27.3672C92.4736 22.3657 94.8028 19.8649 99.4612 19.8649H103.7C108.39 19.8649 110.736 22.3657 110.736 27.3672V33.3061H95.8766V36.1907C95.8766 38.8692 97.0876 40.2024 99.5097 40.2024H110.13V43.8385L99.4612 43.79ZM107.381 27.2824C107.381 24.616 106.17 23.2706 103.748 23.2706H99.4612C97.0392 23.2706 95.8282 24.616 95.8282 27.2824V30.2276H107.333L107.381 27.2824Z" fill="black"/>
<path d="M120.848 43.79L112.698 19.877H116.561L122.713 39.1358L128.865 19.877H132.583L124.481 43.79H120.848Z" fill="black"/>
<path d="M141.811 43.79C137.152 43.79 134.823 41.2892 134.823 36.2876V27.3672C134.823 22.3657 137.152 19.8649 141.811 19.8649H146.049C150.748 19.8649 153.093 22.3657 153.085 27.3672V33.3061H138.226V36.1907C138.226 38.8652 139.437 40.2024 141.859 40.2024H152.48V43.8385L141.811 43.79ZM149.731 27.2824C149.731 24.616 148.52 23.2706 146.098 23.2706H141.811C139.389 23.2706 138.178 24.616 138.178 27.2824V30.2276H149.682L149.731 27.2824Z" fill="black"/>
<path d="M157.396 43.79V19.877H160.751V22.8101C161.066 21.8654 161.7 21.0598 162.543 20.5315C163.52 20.0479 164.604 19.8226 165.692 19.877H170.536V23.513H164.178C163.709 23.4604 163.234 23.5197 162.792 23.6861C162.35 23.8525 161.953 24.1213 161.635 24.4705C161.084 25.371 160.834 26.4238 160.921 27.4763V43.79H157.396Z" fill="black"/>
<path d="M174.193 43.79V19.877H177.548V22.8101C177.863 21.8654 178.497 21.0598 179.34 20.5315C180.317 20.0479 181.401 19.8226 182.489 19.877H187.333V23.513H180.902C180.433 23.4604 179.958 23.5197 179.516 23.6861C179.074 23.8525 178.678 24.1213 178.359 24.4705C177.808 25.371 177.558 26.4238 177.645 27.4763V43.79H174.193Z" fill="black"/>
<path d="M195.58 43.79C194.809 43.8521 194.033 43.7587 193.299 43.5151C192.564 43.2715 191.886 42.8827 191.305 42.3719C190.31 41.202 189.818 39.6857 189.936 38.1541V34.6393C189.936 31.1002 191.83 29.3307 195.616 29.3307H204.893V27.5127C204.893 24.8382 203.682 23.5009 201.259 23.5009H191.305V19.8649H201.32C205.946 19.8729 208.259 22.3737 208.259 27.3672V43.79H195.58ZM204.856 32.4213H195.858C194.054 32.4213 193.158 33.3667 193.158 35.2574V37.6814C193.104 38.0509 193.137 38.4277 193.253 38.7824C193.369 39.1371 193.566 39.4602 193.827 39.7265C194.089 39.9928 194.408 40.1951 194.76 40.3176C195.112 40.4401 195.488 40.4795 195.858 40.4327H204.856V32.4213Z" fill="black"/>
<path d="M221.581 43.79V11.0657H225.214V40.0327H236.113V43.7536L221.581 43.79Z" fill="black"/>
<path d="M244.687 43.79C243.91 43.8571 243.127 43.7661 242.386 43.5224C241.645 43.2787 240.961 42.8873 240.375 42.3719C239.381 41.202 238.889 39.6857 239.007 38.1541V34.6393C239.007 31.1002 240.9 29.3307 244.687 29.3307H253.963V27.5127C253.963 24.8382 252.752 23.5009 250.33 23.5009H240.351V19.8649H250.366C255.033 19.8649 257.362 22.3657 257.354 27.3672V43.79H244.687ZM253.963 32.4213H244.965C243.161 32.4213 242.265 33.3667 242.265 35.2574V37.6814C242.211 38.0509 242.244 38.4277 242.36 38.7824C242.476 39.1371 242.673 39.4602 242.934 39.7265C243.195 39.9928 243.515 40.1951 243.867 40.3176C244.219 40.4401 244.595 40.4795 244.965 40.4327H253.963V32.4213Z" fill="black"/>
<path d="M261.786 43.79V11.0657H265.274V19.877H273.013C277.679 19.877 280.008 22.3778 280 27.3793V36.2876C280 41.2973 277.671 43.7981 273.013 43.79H261.786ZM276.512 27.5248C276.512 24.8503 275.301 23.513 272.879 23.513H265.274V40.2024H272.879C275.301 40.2024 276.512 38.8652 276.512 36.1907V27.5248Z" fill="black"/>
<mask id="mask0_33_348" style="mask-type:alpha" maskUnits="userSpaceOnUse" x="1" y="7" width="53" height="54">
<path d="M27.4055 60.649C41.9458 60.649 53.733 48.8521 53.733 34.2999C53.733 19.7476 41.9458 7.95073 27.4055 7.95073C12.8651 7.95073 1.07788 19.7476 1.07788 34.2999C1.07788 48.8521 12.8651 60.649 27.4055 60.649Z" fill="#492293"/>
</mask>
<g mask="url(#mask0_33_348)">
<path d="M27.4055 60.6491C41.9458 60.6491 53.733 48.8521 53.733 34.2999C53.733 19.7477 41.9458 7.95079 27.4055 7.95079C12.8651 7.95079 1.07788 19.7477 1.07788 34.2999C1.07788 48.8521 12.8651 60.6491 27.4055 60.6491Z" fill="#492293"/>
<path d="M5.09858 13.9503C3.47581 19.1255 5.80097 22.7979 8.88907 26.1552C11.9772 29.5125 15.7071 31.9607 19.3402 34.6393C22.4773 36.7934 24.7746 39.966 25.8434 43.6203C26.4042 45.4531 26.5353 47.3907 26.2266 49.2825C25.9178 51.1743 25.1775 52.9694 24.0632 54.5284C23.5182 55.3162 22.949 56.104 22.3556 56.8676C22.2438 56.9746 22.1566 57.1046 22.1001 57.2487C22.0435 57.3928 22.019 57.5475 22.0282 57.7021C22.0375 57.8566 22.0802 58.0073 22.1534 58.1437C22.2267 58.28 22.3288 58.3988 22.4525 58.4917C23.9299 59.9219 25.3468 61.4126 26.8001 62.867C26.8741 62.9697 26.9715 63.0532 27.0841 63.1109C27.1968 63.1685 27.3215 63.1985 27.448 63.1985C27.5745 63.1985 27.6991 63.1685 27.8118 63.1109C27.9244 63.0532 28.0218 62.9697 28.0958 62.867C29.5733 61.3884 31.0386 59.9097 32.5403 58.4553C33.0731 57.922 33.0005 57.4857 32.613 56.9039C31.4956 55.4085 30.5033 53.8235 29.646 52.165C27.6841 47.7169 28.4349 43.4627 30.9902 39.4389C32.7448 36.8943 35.014 34.7471 37.6508 33.1364C41.0353 30.9576 44.1177 28.3413 46.8182 25.3553C48.5994 23.5427 49.7973 21.2379 50.2575 18.7377C50.3605 17.2528 50.3605 15.7624 50.2575 14.2775C50.4997 14.629 50.8509 15.1017 51.1779 15.5986C52.5369 17.5448 53.2289 19.8794 53.1503 22.2525C53.0717 24.6255 52.2267 26.9092 50.7419 28.761C48.1234 31.9778 44.9686 34.7169 41.4171 36.8573C38.995 38.4329 36.6335 40.0085 34.4053 41.8023C33.3407 42.7513 32.4726 43.9002 31.85 45.1838C31.3546 46.2063 31.147 47.3446 31.2494 48.4764C31.3518 49.6082 31.7604 50.6906 32.4313 51.6075C33.8603 53.9466 35.4225 56.201 36.9484 58.4796C37.8203 59.7643 37.8567 59.7522 36.7304 60.9036L31.8863 65.6547C31.467 66.0546 30.9275 66.3047 30.3515 66.3661C29.7755 66.4275 29.1954 66.2967 28.7014 65.994C28.5699 65.9526 28.4316 65.9378 28.2944 65.9502C28.1572 65.9627 28.0239 66.0023 27.9021 66.0668C27.3935 66.297 26.9454 66.6849 26.4368 66.8667C26.0415 67.0638 25.5939 67.1301 25.1586 67.0561C24.7232 66.982 24.3227 66.7714 24.0147 66.4546C21.9318 64.3942 19.8367 62.358 17.7053 60.3945C17.2209 59.934 17.3178 59.6189 17.7053 59.1825C19.2675 56.9282 20.8661 54.6981 22.3072 52.371C24.7898 48.3714 24.16 44.602 20.418 41.7417C17.5721 39.5843 14.5324 37.6936 11.5896 35.6816C8.62508 33.743 6.03946 31.2785 3.96022 28.4096C0.593581 23.4888 1.47763 18.0953 5.09858 13.9503Z" fill="white"/>
<path d="M27.4661 38.5904C27.1634 38.1178 26.8606 37.536 26.461 37.027C25.4195 35.7301 24.3538 34.4211 23.2397 33.1728C22.7795 32.6637 22.5009 32.288 23.0943 31.7062C23.3047 31.4747 23.4655 31.2024 23.5666 30.9063C24.4507 28.8095 24.4143 27.1248 21.5684 26.4097C20.7173 26.2499 19.9339 25.8372 19.3205 25.2254C18.707 24.6136 18.2919 23.831 18.1292 22.9797C18.8558 23.1131 19.4855 23.2949 20.1394 23.3676C21.8228 23.5373 23.276 22.7252 24.7898 22.1556C25.8562 21.7333 26.9587 21.4088 28.0837 21.186C29.0864 21.1288 30.0923 21.1694 31.0871 21.3072L31.1476 21.695L29.0889 22.4101C29.4695 22.6878 29.9401 22.8132 30.4084 22.7616C30.8766 22.71 31.3087 22.4852 31.6199 22.1313C31.9445 21.8636 32.3199 21.6644 32.7235 21.5459C33.1271 21.4274 33.5505 21.392 33.9682 21.4418C34.3858 21.4917 34.7891 21.6257 35.1535 21.8359C35.5179 22.0461 35.836 22.328 36.0886 22.6646C36.2208 22.885 36.3342 23.1161 36.4277 23.3555C36.0522 23.4645 35.7495 23.5979 35.4346 23.6585C34.5688 23.7822 33.7498 24.1283 33.0574 24.663C32.365 25.1977 31.8229 25.9029 31.4838 26.7097C31.1448 27.5166 31.0204 28.3976 31.1228 29.2669C31.2251 30.1361 31.5508 30.964 32.068 31.6699C32.1679 31.7698 32.2454 31.89 32.2952 32.0223C32.345 32.1547 32.366 32.2961 32.3568 32.4372C32.3477 32.5783 32.3085 32.7158 32.242 32.8406C32.1755 32.9653 32.0831 33.0745 31.9711 33.1606C30.4452 34.8817 29.0283 36.7118 27.4661 38.5904Z" fill="white"/>
<path d="M18.6982 53.4376C18.6364 52.6202 18.5068 51.8094 18.3107 51.0136C17.4859 48.9669 15.9266 47.3026 13.9389 46.3473C11.1657 44.699 8.28344 43.2203 5.52231 41.4993C3.13789 40.2322 1.30818 38.1246 0.387586 35.5847C-0.0833757 33.9049 -0.125018 32.1337 0.266484 30.4336C0.387586 30.5306 0.520798 30.579 0.557129 30.6639C1.73875 33.3557 3.75032 35.5983 6.29737 37.0633C9.11904 38.8692 12.1103 40.4085 14.9804 42.1416C16.3509 42.9363 17.6442 43.8574 18.8435 44.8929C20.8781 46.6988 20.7327 49.0016 19.8971 51.3408C19.6186 52.1044 19.219 52.8195 18.8678 53.5588L18.6982 53.4376Z" fill="white"/>
<path d="M36.2945 53.4618C34.2842 50.65 33.4486 46.5776 36.791 44.2869C39.0798 42.7113 41.5503 41.3781 43.9723 39.9964C47.3874 38.045 50.754 36.0452 53.2124 32.8698C53.7314 32.1152 54.2046 31.33 54.6293 30.5184C55.0555 31.9904 55.0886 33.5484 54.7252 35.0371C54.3619 36.5258 53.6147 37.8931 52.5585 39.0025C50.6098 40.8527 48.3928 42.3973 45.9826 43.5839C43.8754 44.7959 41.744 45.9352 39.7216 47.22C37.6992 48.5047 36.1855 50.4439 36.3671 53.1588C36.3913 53.2921 36.2945 53.3649 36.2945 53.4618Z" fill="white"/>
<path d="M5.7524 14.7017C6.55621 14.7944 7.36612 14.8227 8.17444 14.7865C10.346 14.3656 12.2815 13.1463 13.5998 11.3687C15.7554 8.94464 17.7294 6.3873 19.8971 3.98752C21.5907 1.87359 24.015 0.472322 26.6909 0.0605982C28.4299 -0.10064 30.1812 0.1873 31.7772 0.896886C31.6561 1.00597 31.5835 1.11505 31.4987 1.13929C28.6533 1.79288 26.0908 3.33848 24.1841 5.55101C21.8711 7.97503 19.8123 10.6415 17.572 13.1382C16.5425 14.348 15.4033 15.4597 14.169 16.4591C12.0739 18.1317 9.77299 17.5499 7.64159 16.2894C6.9392 15.8774 6.30947 15.3441 5.65552 14.8714L5.7524 14.7017Z" fill="white"/>
<path d="M50.0273 14.8593C49.2236 14.9536 48.4132 14.978 47.6052 14.932C45.4398 14.5121 43.5116 13.2919 42.2041 11.5141C40.0606 9.09008 38.0745 6.54486 35.9068 4.14507C34.1961 2.00638 31.7373 0.598308 29.0282 0.206035C27.2884 0.0555707 25.5389 0.347401 23.9419 1.05444C24.063 1.16352 24.1357 1.27261 24.2325 1.29685C27.0653 1.97619 29.6095 3.53791 31.4987 5.75705C33.7996 8.18107 35.8704 10.8354 38.1108 13.3321C39.1488 14.5269 40.2918 15.6261 41.5259 16.6167C43.7663 18.2892 45.9825 17.6711 48.1381 16.4591C48.8284 16.0349 49.4581 15.5137 50.1242 15.0289L50.0273 14.8593Z" fill="white"/>
</g>
</g>
<defs>
<clipPath id="clip0_33_348">
<rect width="280" height="67" fill="white"/>
</clipPath>
</defs>
</svg>
