<svg width="107" height="107" viewBox="0 0 107 107" fill="none" xmlns="http://www.w3.org/2000/svg">
<path d="M17.8327 89.1667C15.3806 89.1667 13.2822 88.2943 11.5375 86.5496C9.78985 84.802 8.91602 82.7021 8.91602 80.25V26.75C8.91602 24.2979 9.78985 22.1995 11.5375 20.4548C13.2822 18.7072 15.3806 17.8333 17.8327 17.8333H89.166C91.6181 17.8333 93.718 18.7072 95.4656 20.4548C97.2103 22.1995 98.0827 24.2979 98.0827 26.75V61.525C96.0764 60.3361 93.9394 59.4444 91.6716 58.85C89.4068 58.2556 87.0855 57.9583 84.7077 57.9583C77.2771 57.9583 70.9612 60.559 65.7598 65.7604C60.5584 70.9618 57.9577 77.2778 57.9577 84.7083V89.1667H17.8327ZM53.4993 49.0417L23.6285 30.3167C22.2167 29.4993 20.897 29.48 19.6695 30.2587C18.445 31.0404 17.8327 32.1371 17.8327 33.549C17.8327 34.292 17.9813 34.9236 18.2785 35.4437C18.5757 35.9639 19.0216 36.4097 19.616 36.7812L51.1587 56.5094C51.9018 56.9552 52.682 57.1781 53.4993 57.1781C54.3167 57.1781 55.0969 56.9552 55.84 56.5094L87.3827 36.7812C87.9771 36.4097 88.423 35.9639 88.7202 35.4437C89.0174 34.9236 89.166 34.292 89.166 33.549C89.166 32.2115 88.5716 31.134 87.3827 30.3167C86.1938 29.4993 84.8563 29.4993 83.3702 30.3167L53.4993 49.0417Z" fill="#492293"/>
<path d="M67.8359 77.9824L75.9071 86.0535L92.0493 68.7583" stroke="#2FA84F" stroke-width="4" stroke-linecap="round" stroke-linejoin="round"/>
</svg>
