<svg width="100" height="100" viewBox="0 0 100 100" fill="none" xmlns="http://www.w3.org/2000/svg">
<path d="M77.9166 51.25L53.7499 46.6667L45.6249 23.3334L37.7083 26.0417L45.8333 49.1667L29.5833 67.9167L35.8333 73.3334L52.0833 54.5834L76.2499 59.1667L77.9166 51.25Z" fill="#EF6C00"/>
<path d="M50.0002 39.5834C44.1668 39.5834 39.5835 44.1667 39.5835 50C39.5835 55.8334 44.1668 60.4167 50.0002 60.4167C55.8335 60.4167 60.4168 55.8334 60.4168 50C60.4168 44.1667 55.8335 39.5834 50.0002 39.5834ZM50.0002 54.1667C47.7085 54.1667 45.8335 52.2917 45.8335 50C45.8335 47.7084 47.7085 45.8334 50.0002 45.8334C52.2918 45.8334 54.1668 47.7084 54.1668 50C54.1668 52.2917 52.2918 54.1667 50.0002 54.1667Z" fill="#FF9800"/>
<path d="M84.7917 56.25C85.2084 54.1667 85.4167 52.0833 85.4167 50C85.4167 47.9167 85.2084 45.8333 84.7917 43.75L91.6667 38.75C92.5001 38.125 92.9167 36.875 92.2917 35.8333L83.3334 20.4167C82.7084 19.375 81.6667 18.9583 80.6251 19.5833L72.9167 22.9167C69.7917 20.2083 66.0417 18.125 62.0834 16.6667L61.2501 8.125C61.0417 7.08333 60.2084 6.25 59.1667 6.25H41.2501C40.2084 6.25 39.1667 7.08333 39.1667 8.125L37.9167 16.6667C33.9584 18.125 30.2084 20.2083 27.0834 22.9167L19.3751 19.375C18.3334 18.9583 17.0834 19.375 16.6667 20.4167L7.7084 35.8333C7.0834 36.875 7.50006 38.125 8.3334 38.75L15.2084 43.75C14.7917 45.8333 14.5834 47.9167 14.5834 50C14.5834 52.0833 14.7917 54.1667 15.2084 56.25L8.3334 61.25C7.50006 61.875 7.0834 63.125 7.7084 64.1667L16.6667 79.5833C17.2917 80.625 18.3334 81.0417 19.3751 80.4167L27.0834 77.0833C30.2084 79.7917 33.9584 81.875 37.9167 83.3333L38.7501 91.875C38.9584 92.9167 39.7917 93.75 40.8334 93.75H58.7501C59.7917 93.75 60.8334 92.9167 60.8334 91.875L61.6667 83.3333C65.6251 81.875 69.3751 79.7917 72.5001 77.0833L80.2084 80.625C81.2501 81.0417 82.5001 80.625 82.9167 79.7917L91.8751 64.375C92.5001 63.3333 92.0834 62.0833 91.2501 61.4583L84.7917 56.25ZM50.0001 72.9167C37.2917 72.9167 27.0834 62.7083 27.0834 50C27.0834 37.2917 37.2917 27.0833 50.0001 27.0833C62.7084 27.0833 72.9167 37.2917 72.9167 50C72.9167 62.7083 62.7084 72.9167 50.0001 72.9167Z" fill="#FFB74D"/>
</svg>
